<svg xmlns="http://www.w3.org/2000/svg" width="1200" height="400" viewBox="0 0 1200 400" role="img" aria-label="Workreate logo">
<rect width="100%" height="100%" fill="white"/>
<g id="mark" fill="none" stroke-linecap="round" stroke-linejoin="round">
<line x1="220.00" y1="110.00" x2="259.05" y2="118.91" stroke="#ff8a00" stroke-width="3"/>
<line x1="259.05" y1="118.91" x2="290.36" y2="143.89" stroke="#ff8a00" stroke-width="3"/>
<line x1="290.36" y1="143.89" x2="307.74" y2="179.97" stroke="#ff8a00" stroke-width="3"/>
<line x1="307.74" y1="179.97" x2="307.74" y2="220.03" stroke="#ff8a00" stroke-width="3"/>
<line x1="307.74" y1="220.03" x2="290.36" y2="256.11" stroke="#ff8a00" stroke-width="3"/>
<line x1="290.36" y1="256.11" x2="259.05" y2="281.09" stroke="#ff8a00" stroke-width="3"/>
<line x1="259.05" y1="281.09" x2="220.00" y2="290.00" stroke="#ff8a00" stroke-width="3"/>
<line x1="220.00" y1="290.00" x2="180.95" y2="281.09" stroke="#111111" stroke-width="3"/>
<line x1="180.95" y1="281.09" x2="149.64" y2="256.11" stroke="#111111" stroke-width="3"/>
<line x1="149.64" y1="256.11" x2="132.26" y2="220.03" stroke="#111111" stroke-width="3"/>
<line x1="132.26" y1="220.03" x2="132.26" y2="179.97" stroke="#111111" stroke-width="3"/>
<line x1="132.26" y1="179.97" x2="149.64" y2="143.89" stroke="#111111" stroke-width="3"/>
<line x1="149.64" y1="143.89" x2="180.95" y2="118.91" stroke="#111111" stroke-width="3"/>
<line x1="180.95" y1="118.91" x2="220.00" y2="110.00" stroke="#ff8a00" stroke-width="3"/>
<line x1="220.00" y1="110.00" x2="197.50" y2="161.03" stroke="#d6d6d6" stroke-width="2"/>
<line x1="220.00" y1="110.00" x2="242.50" y2="161.03" stroke="#d6d6d6" stroke-width="2"/>
<line x1="259.05" y1="118.91" x2="242.50" y2="161.03" stroke="#d6d6d6" stroke-width="2"/>
<line x1="259.05" y1="118.91" x2="197.50" y2="161.03" stroke="#d6d6d6" stroke-width="2"/>
<line x1="290.36" y1="143.89" x2="242.50" y2="161.03" stroke="#d6d6d6" stroke-width="2"/>
<line x1="290.36" y1="143.89" x2="265.00" y2="200.00" stroke="#d6d6d6" stroke-width="2"/>
<line x1="307.74" y1="179.97" x2="265.00" y2="200.00" stroke="#d6d6d6" stroke-width="2"/>
<line x1="307.74" y1="179.97" x2="242.50" y2="161.03" stroke="#d6d6d6" stroke-width="2"/>
<line x1="307.74" y1="220.03" x2="265.00" y2="200.00" stroke="#d6d6d6" stroke-width="2"/>
<line x1="307.74" y1="220.03" x2="242.50" y2="238.97" stroke="#d6d6d6" stroke-width="2"/>
<line x1="290.36" y1="256.11" x2="242.50" y2="238.97" stroke="#d6d6d6" stroke-width="2"/>
<line x1="290.36" y1="256.11" x2="265.00" y2="200.00" stroke="#d6d6d6" stroke-width="2"/>
<line x1="259.05" y1="281.09" x2="242.50" y2="238.97" stroke="#d6d6d6" stroke-width="2"/>
<line x1="259.05" y1="281.09" x2="197.50" y2="238.97" stroke="#d6d6d6" stroke-width="2"/>
<line x1="220.00" y1="290.00" x2="197.50" y2="238.97" stroke="#d6d6d6" stroke-width="2"/>
<line x1="220.00" y1="290.00" x2="242.50" y2="238.97" stroke="#d6d6d6" stroke-width="2"/>
<line x1="180.95" y1="281.09" x2="197.50" y2="238.97" stroke="#d6d6d6" stroke-width="2"/>
<line x1="180.95" y1="281.09" x2="242.50" y2="238.97" stroke="#d6d6d6" stroke-width="2"/>
<line x1="149.64" y1="256.11" x2="197.50" y2="238.97" stroke="#d6d6d6" stroke-width="2"/>
<line x1="149.64" y1="256.11" x2="175.00" y2="200.00" stroke="#d6d6d6" stroke-width="2"/>
<line x1="132.26" y1="220.03" x2="175.00" y2="200.00" stroke="#d6d6d6" stroke-width="2"/>
<line x1="132.26" y1="220.03" x2="197.50" y2="238.97" stroke="#d6d6d6" stroke-width="2"/>
<line x1="132.26" y1="179.97" x2="175.00" y2="200.00" stroke="#d6d6d6" stroke-width="2"/>
<line x1="132.26" y1="179.97" x2="197.50" y2="161.03" stroke="#d6d6d6" stroke-width="2"/>
<line x1="149.64" y1="143.89" x2="197.50" y2="161.03" stroke="#d6d6d6" stroke-width="2"/>
<line x1="149.64" y1="143.89" x2="175.00" y2="200.00" stroke="#d6d6d6" stroke-width="2"/>
<line x1="180.95" y1="118.91" x2="197.50" y2="161.03" stroke="#d6d6d6" stroke-width="2"/>
<line x1="180.95" y1="118.91" x2="242.50" y2="161.03" stroke="#d6d6d6" stroke-width="2"/>
<line x1="242.50" y1="161.03" x2="265.00" y2="200.00" stroke="#b9b9b9" stroke-width="2"/>
<line x1="265.00" y1="200.00" x2="242.50" y2="238.97" stroke="#b9b9b9" stroke-width="2"/>
<line x1="242.50" y1="238.97" x2="197.50" y2="238.97" stroke="#b9b9b9" stroke-width="2"/>
<line x1="197.50" y1="238.97" x2="175.00" y2="200.00" stroke="#b9b9b9" stroke-width="2"/>
<line x1="175.00" y1="200.00" x2="197.50" y2="161.03" stroke="#b9b9b9" stroke-width="2"/>
<line x1="197.50" y1="161.03" x2="242.50" y2="161.03" stroke="#b9b9b9" stroke-width="2"/>
<line x1="242.50" y1="161.03" x2="242.50" y2="238.97" stroke="#b9b9b9" stroke-width="1.5" opacity="0.9"/>
<line x1="265.00" y1="200.00" x2="197.50" y2="238.97" stroke="#b9b9b9" stroke-width="1.5" opacity="0.9"/>
<line x1="242.50" y1="238.97" x2="175.00" y2="200.00" stroke="#b9b9b9" stroke-width="1.5" opacity="0.9"/>
<line x1="197.50" y1="238.97" x2="197.50" y2="161.03" stroke="#b9b9b9" stroke-width="1.5" opacity="0.9"/>
<line x1="175.00" y1="200.00" x2="242.50" y2="161.03" stroke="#b9b9b9" stroke-width="1.5" opacity="0.9"/>
<line x1="197.50" y1="161.03" x2="265.00" y2="200.00" stroke="#b9b9b9" stroke-width="1.5" opacity="0.9"/>
<circle cx="220.00" cy="110.00" r="7" fill="#ff8a00"/>
<circle cx="259.05" cy="118.91" r="7" fill="#ff8a00"/>
<circle cx="290.36" cy="143.89" r="7" fill="#ff8a00"/>
<circle cx="307.74" cy="179.97" r="7" fill="#ff8a00"/>
<circle cx="307.74" cy="220.03" r="7" fill="#ff8a00"/>
<circle cx="290.36" cy="256.11" r="7" fill="#ff8a00"/>
<circle cx="259.05" cy="281.09" r="7" fill="#ff8a00"/>
<circle cx="220.00" cy="290.00" r="7" fill="#ff8a00"/>
<circle cx="180.95" cy="281.09" r="7" fill="#111111"/>
<circle cx="149.64" cy="256.11" r="7" fill="#111111"/>
<circle cx="132.26" cy="220.03" r="7" fill="#111111"/>
<circle cx="132.26" cy="179.97" r="7" fill="#111111"/>
<circle cx="149.64" cy="143.89" r="7" fill="#111111"/>
<circle cx="180.95" cy="118.91" r="7" fill="#111111"/>
<circle cx="239.52" cy="114.46" r="3.2" fill="#ff8a00" opacity="0.95"/>
<circle cx="274.71" cy="131.40" r="3.2" fill="#ff8a00" opacity="0.95"/>
<circle cx="299.05" cy="161.93" r="3.2" fill="#ff8a00" opacity="0.95"/>
<circle cx="307.74" cy="200.00" r="3.2" fill="#ff8a00" opacity="0.95"/>
<circle cx="299.05" cy="238.07" r="3.2" fill="#ff8a00" opacity="0.95"/>
<circle cx="274.71" cy="268.60" r="3.2" fill="#ff8a00" opacity="0.95"/>
<circle cx="239.52" cy="285.54" r="3.2" fill="#ff8a00" opacity="0.95"/>
<circle cx="200.48" cy="285.54" r="3.2" fill="#111111" opacity="0.95"/>
<circle cx="165.29" cy="268.60" r="3.2" fill="#111111" opacity="0.95"/>
<circle cx="140.95" cy="238.07" r="3.2" fill="#111111" opacity="0.95"/>
<circle cx="132.26" cy="200.00" r="3.2" fill="#111111" opacity="0.95"/>
<circle cx="140.95" cy="161.93" r="3.2" fill="#111111" opacity="0.95"/>
<circle cx="165.29" cy="131.40" r="3.2" fill="#111111" opacity="0.95"/>
<circle cx="200.48" cy="114.46" r="3.2" fill="#ff8a00" opacity="0.95"/>
<circle cx="242.50" cy="161.03" r="5" fill="#b9b9b9"/>
<circle cx="265.00" cy="200.00" r="5" fill="#b9b9b9"/>
<circle cx="242.50" cy="238.97" r="5" fill="#b9b9b9"/>
<circle cx="197.50" cy="238.97" r="5" fill="#b9b9b9"/>
<circle cx="175.00" cy="200.00" r="5" fill="#b9b9b9"/>
<circle cx="197.50" cy="161.03" r="5" fill="#b9b9b9"/>
</g>
<g id="wordmark">
<text x="340" y="215" font-family="Montserrat, Inter, Arial, sans-serif" font-size="110" font-weight="800" letter-spacing="-1.5">
<tspan fill="#111111">Work</tspan><tspan fill="#ff8a00">reate</tspan></text>
<text x="510" y="275" font-family="Montserrat, Inter, Arial, sans-serif" font-size="34" font-weight="600" letter-spacing="6" fill="#8c8c8c">A LIFE OF PURPOSE</text>
</g>
</svg>